# xmcd
#
# Track frame offsets: 
#        150
#        29234
#        52464
#        79369
#        96940
#        113831
#        127999
#        142554
#        157983
#        169553
#        186237
#        206374
#        220025
#        239162
#        256017
#        280940
#        297979
#
# Disc length: 4260 seconds
#
# Revision: 1
# Processed by: cddbd v1.5.2PL0 Copyright (c) Steve Scherf et al.
# Submitted via: ExactAudioCopy v0.99pb5
#
DISCID=fc10a211
DTITLE=Claude Nougaro - Les 100 plus belles chansons - CD5 - Sur scène
DYEAR=2006
DGENRE=Jazz
TTITLE0=Le rouge et le noir (Enseigne au néon)
TTITLE1=C'est une Garonne
TTITLE2=Paris mai (Flomela)
TTITLE3=Le coq et la pendule
TTITLE4=A bout de souffle (Blue Rondo à la Turk)
TTITLE5=Sing Sing Song (Work Song)
TTITLE6=Armstrong (Let My People Go)
TTITLE7=Façon Chaplin
TTITLE8=Le jazz et la java
TTITLE9=Le chat (The Cat)
TTITLE10=Vie violence
TTITLE11=Quatre boules de cuir
TTITLE12=Harlem (Fables Of Faubus)
TTITLE13=Nougayork
TTITLE14=Toulouse
TTITLE15=Bidonville (Berimbau)
TTITLE16=Cécile ma fille
EXTD=YEAR: 2006
EXTT0=
EXTT1=
EXTT2=
EXTT3=
EXTT4=
EXTT5=
EXTT6=
EXTT7=
EXTT8=
EXTT9=
EXTT10=
EXTT11=
EXTT12=
EXTT13=
EXTT14=
EXTT15=
EXTT16=
PLAYORDER=
